<?xml version="1.0" encoding="UTF-8"?>
<svg id="_레이어_1" data-name="레이어_1" xmlns="http://www.w3.org/2000/svg" version="1.1" viewBox="0 0 283.46 283.46">
  <!-- Generator: Adobe Illustrator 29.0.0, SVG Export Plug-In . SVG Version: 2.1.0 Build 186)  -->
  <path d="M268.3,81.89c-13.6-13.77-37.2-20.59-59.65-5.24l-1.76-1.76c15.16-22.63,8.47-46.11-5.09-59.52-13.76-13.62-37.66-20.17-60.36-4.53-8.36-6.35-19.64-9.68-30.42-8.93-17.09,1.18-31.55,11.15-38.69,26.67-7.05,15.35-5.45,32.57,4.25,46.34l-1.72,1.73c-17.11-11.98-38.63-11.57-55.18,1.16C2.99,90.64-2.69,111.78,5.2,131.65c.8,2.01,1.82,3.77,2.81,5.47.93,1.59,1.81,3.11,2.48,4.77-15.37,22.76-8.59,46.55,5.08,60.14,13.46,13.38,36.89,19.95,59.27,4.91l1.77,1.77c-15.14,22.57-8.47,46,5.06,59.39,8.14,8.05,19.8,13.63,32.65,13.63,8.9,0,18.37-2.68,27.64-9.08,9.54,7.13,21.4,10.16,33.52,8.54,12.35-1.65,23.59-8.2,30.85-17.99,12.04-16.22,12.22-37.97.59-54.52l1.74-1.74c22.61,15.15,46.11,8.39,59.55-5.22,13.6-13.78,20.14-37.65,4.47-60.27,15.69-22.18,9.19-45.82-4.38-59.56ZM258.48,193.24c-10.81,10.35-29.05,14.58-45.44.73h0c-2.42-2.04-5.94-5.84-9.68-9.86-6.56-7.07-13.35-14.38-17.59-16.17-4.05-1.71-8.81-1.26-12.73,1.21-3.78,2.38-6.16,6.3-6.36,10.5-.06,1.16.29,2.32.61,3.35.17.55.44,1.44.41,1.77-1.42,1.88-13.5,13.8-14.7,14.65-.06.04-.12.09-.18.13-8.38-13.48-7.41-29.89,2.53-41.16,12.33-13.97,32.86-15.09,47.75-2.6,3.49,2.93,7.27,7.13,10.92,11.2,4.57,5.09,9.3,10.36,13.77,13.49,4.01,2.81,9.34,3.12,13.92.82,4.58-2.31,7.39-6.6,7.52-11.48.03-1.1-.34-2.25-.66-3.26-.2-.63-.53-1.68-.46-1.98.58-1.37,4.5-4.83,7.65-7.6,2.64-2.33,5.17-4.56,6.83-6.39,11.21,16,6.17,32.82-4.1,42.64ZM112.59,14.68c16.76-.69,28.78,12.45,40.41,25.22,4.51,4.95,8.8,9.66,13.32,13.57-1.99,1.78-3.99,4.07-5.94,6.31-2.49,2.86-5.07,5.82-7.36,7.35l-.27.18c-.06.04-.12.09-.19.13l-28.16-28.6c-2.99-2.74-6.89-4.28-10.68-4.28-.48,0-.96.03-1.44.08-3.73.4-7.01,2.34-9.23,5.47-2.85,4.01-2.32,7.66-1.94,10.32.16,1.08.3,2.11.11,2.65-1.15,1.53-12.69,13.08-14.04,14.06-.05.03-.08.05-.08.05-.38-.09-1.13-.87-2.58-4.06l-.27-.6c-4.84-10.29-4.23-22.24,1.64-31.96,5.79-9.59,15.52-15.38,26.7-15.87ZM183.45,97.69l13.39-13.94,35.51,35.64-13.47,13.9-35.43-35.61ZM154.94,141.64c-.12.09-.24.19-.36.28-4.85,3.83-9.85,7.79-12.86,13.42-2.3-4.69-6.35-8.06-10.27-11.34-1.03-.86-2.02-1.69-2.97-2.53,5.37-3.06,10.18-7.88,13.28-13.34,2.57,4.99,7.32,9.86,13.18,13.52ZM120.01,50.59c.06.04.12.08.17.12l.29.2c1.23.85,12.25,11.87,13.1,13.1l.19.27c.04.06.08.12.12.18l-36.71,35.63-13.48-13.36,36.32-36.13ZM185.77,182.87c.07.05.15.11.22.15l.3.21c2.27,1.52,4.86,4.48,7.35,7.34,1.98,2.27,4.02,4.61,6.04,6.4l-36,35.4-13.48-13.92,35.57-35.58ZM244.15,152.65c-4.77,4.44-9.7,9.02-14.03,13.77-1.78-2-4.1-4.02-6.35-5.98-2.86-2.49-5.82-5.07-7.35-7.36l-.2-.29c-.07-.11-.17-.25-.19-.25,0,0,0,0,0,0,0,0,0,0,0-.01.8-1.08,5.2-5.37,7.12-7.24.81-.79,1.45-1.42,1.77-1.74,1.41-1.43,3.51-3.38,5.95-5.65,6.43-5.97,14.43-13.41,16.55-17.53,2.06-4.01,2.01-8.82-.15-12.89-1.98-3.74-5.43-6.17-9.46-6.66-1.38-.17-2.92.04-4.41.25-.99.13-2.46.33-2.95.2-1.52-1.13-11.5-10.98-14-13.92,2.86-3.26,9.47-5.58,14.68-6.18,14.19-1.63,27.09,4.98,33.65,17.24,6.62,12.36,4.95,26.88-4.36,37.88-4.76,5.63-10.62,11.08-16.28,16.35ZM201.55,56.24c-2.44,10.39-10.83,17.98-18.95,25.31-4.5,4.06-9.15,8.27-12.66,12.87-4.37,5.73-4.06,13.66.73,18.45,1.99,1.99,6.51,3.69,9.07,3.83,1.23.07,2.42-.26,3.46-.55.77-.21,1.72-.47,2.15-.36,1.5,1.15,12.6,12.24,13.73,13.74.29.38.43.71.39.88-.16.66-2.06,1.58-3.2,2.14l-.72.35c-13.21,6.57-28.43,4.03-38.79-6.48-10.35-10.5-12.67-25.76-5.9-38.87,3.52-6.81,10-12.59,16.27-18.17,5.09-4.53,9.9-8.81,13.29-13.64,2.82-4.02,3.23-9.1,1.11-13.59-2.12-4.48-6.28-7.38-11.12-7.75-.15-.01-.31-.02-.46-.02-1.2,0-2.41.33-3.5.63-.66.18-1.67.46-1.92.41-1.37-.58-4.83-4.5-7.6-7.65-2.33-2.65-4.57-5.19-6.4-6.84,13.18-9.43,27.39-6.84,36.51-1.06,12.19,7.72,17.88,21.99,14.52,36.36ZM105.3,116.54c3.39-.48,6.36-2.33,8.59-5.35,3.51-4.74,2.68-8.54,2.13-11.06-.17-.78-.35-1.59-.26-1.98,1.3-1.74,12.85-13.17,13.99-13.99.13-.09.37-.23.52-.19.72.19,1.69,2.2,2.22,3.27.13.26.25.51.37.74,8.42,16.68,1.68,32.52-8.72,40.82-9.97,7.95-27.49,12.36-44.08-1.39-3.32-2.75-7.11-6.97-10.78-11.06-4.75-5.29-9.67-10.76-14-13.59-2.14-1.4-4.59-2.11-7.08-2.11-2.21,0-4.45.55-6.56,1.66-4.48,2.35-7.24,6.63-7.36,11.44-.03,1.1.34,2.25.66,3.26.2.63.53,1.68.46,1.98-.58,1.37-4.5,4.83-7.65,7.6-2.67,2.35-5.23,4.61-6.88,6.45-6.59-8.72-8.04-20.12-3.84-30.9,4.49-11.52,14.6-19.56,26.39-20.98,18.07-2.17,26.71,7.39,36.73,18.47,4.23,4.68,8.61,9.52,13.92,13.57,3.5,2.67,7.49,3.85,11.24,3.32ZM39.66,130.71c4.84-4.39,9.82-8.91,13.93-13.65l13.55,12.87c.62,1.04.29,1.71-2.53,3.72-.81.58-1.65,1.17-2.29,1.83-2.98,3.06-6.2,6.2-9.31,9.23-4.48,4.37-9.11,8.88-13.22,13.34-3.73,4.05-5.69,8.78-5.37,12.97.25,3.35,1.93,6.35,4.86,8.69,4.29,3.43,7.83,3.18,11.93,2.9.61-.04,1.23-.09,1.89-.12l13.54,14.11c-8.68,6.27-19.87,7.72-30.28,3.85-11.14-4.15-19.02-13.43-21.08-24.83-3.55-19.6,10.64-32.47,24.37-44.92ZM50.66,163.34l.18-.27c.79-1.11,9.93-10.28,12.96-12.92l36.45,35.99c-2.26,2.87-10.89,11.52-13.27,13.45-3.34-2.02-16.94-16.12-25.22-24.7-5.1-5.29-9.24-9.59-11.21-11.39.04-.05.07-.11.11-.15ZM82.46,225.22c2.68-8.93,10.65-16.19,18.36-23.22,4.48-4.08,8.71-7.94,12.02-12.14,4.37-5.55,4.99-12.1,1.62-17.1-3.28-4.87-9.46-6.92-15.92-5.37l-14.2-14.27c3.76-3.52,11.51-5.89,17.17-6.14,12.04-.52,23.14,5.29,29.67,15.58,6.52,10.27,7.06,22.78,1.45,33.45-3.57,6.78-10.03,12.55-16.27,18.13-5.1,4.55-9.91,8.85-13.3,13.68-3.5,5-3.51,10.76-.02,15.39,3.68,4.89,10.04,6.93,16.08,5.25l14,14.02c-11.57,8.11-26.21,8.31-37.77.38-12.19-8.37-17.25-23.15-12.89-37.66ZM131.01,216.2l29.71,29.59.1.09c3.67,3.06,8.87,3.85,13.57,2.07,4.51-1.71,7.63-5.45,8.33-10.01.26-1.7.03-3.17-.18-4.48-.17-1.04-.31-1.97-.21-2.91l14.19-13.62c7.47,11.08,8.16,24.08,1.78,35.09-6.81,11.75-20.02,18-34.47,16.31-12.07-1.41-23.79-14.21-34.14-25.5-4.41-4.82-8.61-9.4-12.61-12.89l13.94-13.75Z"/>
</svg>