<?xml version="1.0" encoding="UTF-8"?>
<svg id="_레이어_1" data-name="레이어_1" xmlns="http://www.w3.org/2000/svg" version="1.1" viewBox="0 0 283.46 283.46">
  <!-- Generator: Adobe Illustrator 29.0.0, SVG Export Plug-In . SVG Version: 2.1.0 Build 186)  -->
  <defs>
    <style>
      .st0 {
        fill: #231815;
      }
    </style>
  </defs>
  <path class="st0" d="M209.94,211.01H73.52c-7.37,0-13.37-6-13.37-13.37v-111.82c0-7.37,6-13.37,13.37-13.37h136.42c7.37,0,13.37,6,13.37,13.37v111.82c0,7.37-6,13.37-13.37,13.37ZM73.52,84.45c-.75,0-1.37.61-1.37,1.37v111.82c0,.75.61,1.37,1.37,1.37h136.42c.75,0,1.37-.61,1.37-1.37v-111.82c0-.76-.61-1.37-1.37-1.37H73.52Z"/>
  <g>
    <rect class="st0" x="108.64" y="119.63" width="66.19" height="12"/>
    <rect class="st0" x="108.64" y="151.83" width="66.19" height="12"/>
  </g>
</svg>